<svg version="1.1" id="Layer_1" xmlns="http://www.w3.org/2000/svg" xmlns:xlink="http://www.w3.org/1999/xlink" x="0px" y="0px"
	 width="100%" viewBox="0 0 1080 1080" enable-background="new 0 0 1080 1080" xml:space="preserve">
<path fill="#47704C" opacity="1.000000" stroke="none" 
	d="
M598.000000,1081.000000 
	C400.189453,1081.000000 202.878876,1080.988892 5.568356,1081.085938 
	C1.945774,1081.087646 0.895233,1080.475586 0.896453,1076.569336 
	C1.007969,719.610535 1.009667,362.651733 0.882322,5.692982 
	C0.880832,1.518645 1.870237,0.896188 5.805996,0.897407 
	C362.598114,1.007960 719.390259,1.007783 1076.182373,0.899066 
	C1080.093872,0.897874 1081.120728,1.482180 1081.119141,5.681380 
	C1080.990234,362.473511 1080.989380,719.265686 1081.123047,1076.057861 
	C1081.124756,1080.442383 1080.021606,1081.103516 1075.943237,1081.100586 
	C916.795593,1080.982178 757.647766,1081.000000 598.000000,1081.000000 
z"/>
<path fill="#000000" opacity="1.000000" stroke="none" 
	d="
M397.674957,269.834503 
	C402.583771,280.638702 407.299805,291.185272 411.878448,301.791107 
	C412.822357,303.977570 415.035248,306.587555 413.356781,308.674011 
	C410.950562,311.665009 406.697052,312.083160 403.245056,313.543854 
	C401.914185,314.107086 401.332001,311.627930 400.761505,310.350525 
	C393.825562,294.820038 386.931976,279.270599 380.047455,263.717224 
	C378.446106,260.099548 377.004974,256.408722 375.326630,252.828171 
	C374.374298,250.796387 375.113281,249.776489 376.923859,249.029190 
	C379.056854,248.148819 381.202576,247.290649 383.290833,246.312073 
	C393.470856,241.541641 390.931396,242.259720 397.601196,249.313477 
	C405.799286,257.983398 413.476807,267.158356 422.071594,275.456116 
	C423.920685,277.241302 424.741608,280.016479 427.652435,281.368103 
	C426.981842,272.473511 426.446259,263.990021 425.674500,255.528061 
	C424.926025,247.321442 422.585144,238.986969 423.473938,230.989853 
	C424.195648,224.496201 432.824799,225.375046 437.622253,222.421341 
	C440.220032,220.821945 441.046143,224.167542 441.934814,225.957367 
	C443.623383,229.358322 445.118866,232.856583 446.649994,236.334030 
	C452.638214,249.934052 458.522034,263.580902 464.620239,277.131348 
	C468.059784,284.774231 465.665405,288.972198 457.061646,289.854126 
	C454.538940,290.112701 453.995087,288.132172 453.295441,286.559845 
	C449.134216,277.208069 445.087402,267.805389 440.978119,258.430359 
	C440.086273,256.395721 439.096039,254.404205 437.029449,252.736343 
	C437.425354,259.246613 437.635162,265.774994 438.266235,272.262421 
	C438.986328,279.664673 439.875732,287.035461 440.083588,294.491119 
	C440.187897,298.231934 437.573944,299.016479 435.243561,299.732239 
	C432.631989,300.534302 430.146362,303.258606 426.928741,299.617493 
	C417.926086,289.429688 408.447784,279.662201 398.906067,269.509033 
	C398.597870,270.777344 397.807800,269.365021 397.674957,269.834503 
z"/>
<path fill="#000000" opacity="1.000000" stroke="none" 
	d="
M508.692993,837.667725 
	C504.994873,846.192444 501.255615,854.295715 498.088745,862.616882 
	C496.627838,866.455444 494.939911,867.812744 490.686310,867.112488 
	C483.465057,865.923706 483.629974,866.221680 482.939972,858.952209 
	C481.633972,845.193970 480.051605,831.462097 478.495239,816.887085 
	C474.708588,823.824219 472.731171,830.731812 470.074249,837.334045 
	C467.181641,844.521851 464.546173,851.815186 461.904358,859.100769 
	C460.994568,861.609802 459.373199,862.410217 456.914459,861.838318 
	C456.275635,861.689758 455.694458,861.276672 455.054352,861.152954 
	C446.426483,859.485535 446.522278,859.532227 449.725616,851.595581 
	C456.887268,833.851807 464.011108,816.091858 470.982758,798.272949 
	C472.388336,794.680420 474.235046,793.020996 478.065674,794.535339 
	C478.523773,794.716492 479.014435,794.842834 479.501801,794.917969 
	C489.722992,796.494751 489.381927,796.515625 490.093536,807.068359 
	C490.810486,817.701172 492.300659,828.281860 493.589203,840.148682 
	C497.498779,835.464600 498.662323,830.614502 500.686523,826.339783 
	C504.282288,818.746399 507.261322,810.859985 510.467804,803.083557 
	C511.509613,800.557007 513.096863,799.305115 515.887451,800.446411 
	C516.194519,800.572021 516.493774,800.755981 516.813416,800.805969 
	C520.572632,801.393982 525.619812,799.974182 527.562561,803.718384 
	C529.257629,806.984985 528.702942,811.462585 528.974976,815.416626 
	C530.234924,833.723022 531.407227,852.035583 532.707031,870.339111 
	C532.829468,872.063293 532.432495,873.032776 530.736084,872.905945 
	C527.118774,872.635132 523.489563,872.329041 519.917542,871.727295 
	C518.131775,871.426514 518.066284,869.650085 518.007446,868.094666 
	C517.688049,859.646606 517.366333,851.198425 516.990417,842.752747 
	C516.710876,836.474731 515.266235,830.272766 515.643616,823.756348 
	C512.328064,827.829407 510.903473,832.734192 508.692993,837.667725 
z"/>
<path fill="#000000" opacity="1.000000" stroke="none" 
	d="
M584.499878,279.627380 
	C582.696594,278.070526 583.060242,276.567871 583.533630,274.857605 
	C589.072876,254.845779 594.552979,234.817520 600.004639,214.781616 
	C600.520874,212.884430 601.175659,211.617767 603.401855,212.707703 
	C603.550049,212.780243 603.718567,212.862762 603.875488,212.858627 
	C618.311462,212.478439 619.122131,223.954025 621.969849,233.651627 
	C625.025330,244.056091 628.072449,254.462982 632.142822,264.922485 
	C634.395142,256.901337 636.688477,248.891403 638.883179,240.854507 
	C640.055298,236.562363 641.001343,232.208740 642.155762,227.911407 
	C642.902039,225.133469 643.807312,223.511963 647.659241,224.629120 
	C657.332336,227.434555 657.295044,227.091904 654.477417,237.117081 
	C649.572449,254.569565 644.675232,272.028107 640.153625,289.581726 
	C639.037598,293.914490 637.292786,294.687897 633.584473,293.038757 
	C632.538208,292.573425 631.398743,292.149323 630.273682,292.059113 
	C625.826599,291.702637 623.964661,289.202515 622.800354,284.990967 
	C618.551147,269.619690 613.895996,254.360565 609.047974,237.883713 
	C606.222107,243.583527 605.596130,248.909927 604.075867,253.890381 
	C601.624451,261.921509 599.488464,270.054047 597.423523,278.195557 
	C596.555847,281.616394 595.280701,283.084106 591.591553,281.387634 
	C589.540100,280.444305 587.114136,280.315338 584.499878,279.627380 
z"/>
<path fill="#000000" opacity="1.000000" stroke="none" 
	d="
M350.749939,720.268494 
	C353.583832,723.251160 352.673401,725.404541 350.035339,727.484741 
	C336.315094,738.304016 322.685638,749.239258 308.898193,759.971802 
	C305.725159,762.441833 302.899048,767.451782 299.019806,766.387817 
	C295.902374,765.532837 293.742096,760.898193 291.334991,757.802368 
	C285.997253,750.937134 280.000885,744.600159 276.551392,736.328186 
	C272.403625,726.381531 273.402588,717.109741 279.720856,708.777771 
	C288.075409,697.760620 298.338562,689.621826 313.282440,689.964783 
	C320.282959,690.125427 325.977905,692.903564 331.052368,697.514648 
	C338.448792,704.235657 344.078766,712.459473 350.749939,720.268494 
z"/>
<path fill="#000000" opacity="1.000000" stroke="none" 
	d="
M802.000061,511.929749 
	C802.000000,510.949097 801.999939,510.449615 802.000000,509.950134 
	C802.001831,501.302948 802.016663,501.521820 810.521790,500.946533 
	C827.895630,499.771423 845.279114,499.048340 862.691284,498.990997 
	C862.857788,498.990448 863.024719,498.994934 863.190674,498.984283 
	C871.992981,498.417450 871.995422,498.417297 871.999084,507.710419 
	C872.002075,515.369141 872.061035,523.028503 871.983154,530.686523 
	C871.856323,543.161438 863.988037,553.748047 852.155884,557.397156 
	C842.472168,560.383789 832.497986,560.815369 822.989685,557.696899 
	C810.876099,553.724060 805.204773,546.385498 803.249695,530.724609 
	C802.500854,524.725586 802.002869,518.543762 802.000061,511.929749 
z"/>
<path fill="#000000" opacity="1.000000" stroke="none" 
	d="
M569.872070,247.397369 
	C575.132874,256.355042 576.117249,266.437653 579.684509,275.637390 
	C580.382324,277.436737 579.049316,277.950867 577.514160,277.955688 
	C574.185364,277.966187 570.851257,277.845612 567.529480,277.998383 
	C565.121643,278.109131 564.917603,276.280579 564.460938,274.816193 
	C562.696289,269.157562 561.192993,263.415405 559.350098,257.783630 
	C556.647522,249.524490 551.918579,247.042709 543.683472,248.951187 
	C541.272644,249.509872 542.070801,251.170654 542.051392,252.422653 
	C541.948364,259.079559 541.879822,265.741547 542.038818,272.396057 
	C542.122437,275.893677 540.685303,277.100677 537.294312,277.032593 
	C524.749268,276.780701 526.779724,278.396912 527.121094,267.327820 
	C527.703491,248.443039 528.914490,229.577316 529.032715,210.673111 
	C529.041565,209.261841 528.710571,207.085449 530.819885,207.197922 
	C543.767273,207.888336 556.984985,206.043793 569.516418,210.873199 
	C576.555908,213.586105 578.825256,219.760895 578.815918,226.384048 
	C578.806641,232.943085 576.956238,239.237976 569.790588,242.093857 
	C568.747253,242.509674 567.816101,243.206726 566.195068,244.141510 
	C567.518066,245.291107 568.578430,246.212479 569.872070,247.397369 
z"/>
<path fill="#000000" opacity="1.000000" stroke="none" 
	d="
M687.781006,817.977295 
	C673.819336,820.233643 666.816528,811.802734 660.920227,801.668274 
	C657.531616,795.844116 655.145325,789.485107 656.320801,782.787903 
	C658.535828,770.167480 668.875305,763.406494 682.612488,765.515137 
	C679.548584,760.192871 676.717041,755.298828 673.912659,750.389221 
	C672.931213,748.670959 672.024719,746.910034 671.069214,745.176758 
	C670.316833,743.811768 670.466553,742.590759 671.826416,741.781677 
	C674.653564,740.099731 677.512939,738.467957 680.405823,736.902039 
	C682.334534,735.857910 683.138855,737.509583 683.829773,738.714294 
	C693.266846,755.170776 702.650757,771.657654 712.043396,788.139587 
	C713.431702,790.575867 714.599243,793.166687 716.219360,795.435791 
	C718.872681,799.151794 717.508606,801.358154 713.897949,803.024963 
	C712.997009,803.440857 711.972229,803.747375 711.261414,804.388977 
	C708.186646,807.164246 705.648987,806.837036 703.431885,802.543457 
	C701.074463,810.976379 695.779175,815.670776 687.781006,817.977295 
z"/>
<path fill="#000000" opacity="1.000000" stroke="none" 
	d="
M255.597961,439.311676 
	C252.074875,437.762604 248.938782,436.268890 245.700287,435.046448 
	C243.911179,434.371124 243.937775,433.409515 244.524506,431.973511 
	C245.770798,428.923157 246.793350,425.768433 248.225922,422.810638 
	C249.810928,419.538086 251.907959,423.744781 254.051712,422.458282 
	C252.847092,418.313141 252.338715,413.860443 253.334274,409.536591 
	C255.758087,399.009644 265.238068,393.353424 276.142822,394.769989 
	C283.262543,395.694916 289.431091,398.494049 295.462463,401.977203 
	C311.160187,411.042664 308.732513,433.714325 293.189911,440.362305 
	C300.124084,443.561462 306.524780,446.711700 313.095612,449.454224 
	C315.941132,450.641907 316.404633,451.793549 315.186768,454.616119 
	C311.011841,464.292053 311.168579,464.228210 301.622925,459.896942 
	C286.434998,453.005493 271.172882,446.277466 255.597961,439.311676 
z"/>
<path fill="#000000" opacity="1.000000" stroke="none" 
	d="
M374.165497,800.675049 
	C360.256287,802.790222 350.497437,791.321716 349.993286,781.744995 
	C349.357025,769.659302 363.770203,749.540405 376.082062,748.626526 
	C384.317322,748.015137 397.551117,753.650330 398.382782,765.419373 
	C400.753723,765.476257 400.675049,760.959534 403.327332,762.341248 
	C406.811493,764.156250 410.024841,766.557617 413.131927,768.991211 
	C414.121826,769.766663 412.984955,771.126343 412.370697,772.029175 
	C401.602509,787.856323 390.811279,803.667847 380.011078,819.473206 
	C379.080933,820.834412 378.157532,822.225342 377.045807,823.431824 
	C375.193970,825.441589 374.438721,830.008728 371.929718,829.408936 
	C368.310455,828.543823 365.155487,825.530457 361.949310,823.229065 
	C360.315887,822.056519 361.788116,820.968079 362.507507,819.899475 
	C366.465027,814.020386 370.386078,808.116821 374.515259,801.938232 
	C373.222321,801.597900 374.635040,800.807800 374.165497,800.675049 
z"/>
<path fill="#000000" opacity="1.000000" stroke="none" 
	d="
M500.577759,237.676208 
	C501.620544,237.354477 502.252472,237.111206 502.900909,237.053757 
	C510.862396,236.348206 510.641113,236.403061 512.354187,244.352341 
	C512.957092,247.149658 512.488586,247.691010 509.841919,248.101471 
	C502.693817,249.210083 495.626678,250.850250 488.471680,251.899612 
	C486.127686,252.243408 485.711609,253.156342 486.004822,255.054932 
	C486.682770,259.444885 487.368683,263.833893 488.098267,268.215485 
	C488.414551,270.115082 489.570282,269.786896 491.068909,269.495361 
	C498.983490,267.955536 506.951202,266.686523 514.858826,265.114105 
	C519.158691,264.259125 521.398132,265.689056 521.905212,270.081665 
	C522.351990,273.952057 523.270203,277.229523 517.239746,277.976044 
	C505.160706,279.471283 493.196442,281.897430 481.188049,283.958191 
	C477.601868,284.573639 475.670807,283.201599 475.048859,279.524200 
	C471.782227,260.209839 468.405731,240.914124 465.097504,221.606766 
	C464.386444,217.456848 465.622833,215.461075 470.406738,214.836197 
	C482.805939,213.216644 495.128265,210.957031 507.427032,208.661987 
	C510.053284,208.171890 510.838013,208.929413 510.943237,211.155365 
	C511.022339,212.827988 511.432159,214.395828 511.791931,216.013794 
	C512.400879,218.752319 511.839813,220.630142 508.245117,221.088547 
	C500.086670,222.128937 491.993896,223.686874 483.878784,225.060165 
	C483.248352,225.166840 482.267944,225.312820 482.098755,225.714050 
	C480.223816,230.159607 482.612976,234.331619 483.343842,238.543243 
	C483.772675,241.014236 486.630615,239.937820 488.464569,239.693619 
	C492.380707,239.172134 496.272705,238.469437 500.577759,237.676208 
z"/>
<path fill="#000000" opacity="1.000000" stroke="none" 
	d="
M679.242920,317.777588 
	C672.093750,312.693237 667.260132,306.509918 665.996887,297.934662 
	C665.545776,294.872192 666.451233,292.852234 669.689758,292.134308 
	C671.456177,291.742767 673.196655,291.175629 674.892273,290.537445 
	C677.541931,289.540070 678.703674,290.038422 679.078918,293.186005 
	C680.109619,301.830292 685.060974,307.637878 693.053284,310.908203 
	C696.543945,312.336456 699.568481,311.460327 701.822571,308.573669 
	C704.022949,305.755768 704.381958,302.933533 702.176086,299.561157 
	C698.402832,293.792419 692.459839,290.087341 688.637207,284.383331 
	C683.785950,277.144440 683.682129,270.005829 687.951660,262.538544 
	C692.653198,254.315918 700.429565,252.427170 708.505066,254.298248 
	C720.171692,257.001404 729.574524,263.386536 734.226074,275.302063 
	C735.572937,278.752289 734.601135,280.238892 731.354858,281.048187 
	C730.403992,281.285248 729.462158,281.679321 728.608459,282.163971 
	C725.148987,284.127960 723.058411,284.110321 721.562195,279.490997 
	C719.567444,273.332611 714.466064,269.603760 708.554626,267.408691 
	C705.739746,266.363464 702.760681,266.555054 700.665344,269.660980 
	C698.512024,272.852783 699.025208,275.434326 701.540466,278.065552 
	C705.890320,282.616058 710.649048,286.748047 714.455872,291.855408 
	C720.295776,299.690369 720.529785,307.942200 714.655579,316.658508 
	C709.910645,323.699280 700.331970,326.879425 691.768433,324.365448 
	C687.254944,323.040436 683.335632,320.643555 679.242920,317.777588 
z"/>
<path fill="#000000" opacity="1.000000" stroke="none" 
	d="
M803.767822,474.769348 
	C803.367065,475.327759 803.235779,475.642639 803.028870,475.895721 
	C801.631470,477.604767 800.696167,480.726959 798.457947,480.370056 
	C796.472168,480.053436 796.828064,476.709015 795.832581,474.890045 
	C793.057800,469.820099 793.389771,465.387299 797.434570,461.048096 
	C799.554138,458.774384 801.093018,455.954803 802.860535,453.358887 
	C804.513977,450.930450 806.122986,448.471802 808.227539,445.311768 
	C802.342651,445.551880 797.551880,447.687103 793.008301,449.725372 
	C788.838440,451.596039 787.405334,450.523529 786.287781,446.650604 
	C783.275635,436.212616 782.194641,438.534271 791.827820,435.199921 
	C810.548950,428.719818 829.446777,422.750854 848.180298,416.305267 
	C852.095398,414.958221 853.882385,415.093750 855.140442,419.574371 
	C857.521973,428.056396 857.827820,427.989899 849.386719,430.794708 
	C839.851929,433.962982 830.305176,437.095154 820.009155,440.491974 
	C826.393250,444.258057 832.880615,445.513031 838.919861,447.870636 
	C842.223511,449.160248 847.589111,458.160614 846.806702,461.504486 
	C846.328552,463.548096 844.990784,462.802979 843.693359,462.351196 
	C836.525635,459.855072 829.296082,457.527588 822.187256,454.875519 
	C819.550659,453.891907 818.172058,454.122986 816.527527,456.679260 
	C812.602905,462.779724 808.207520,468.577332 803.767822,474.769348 
z"/>
<path fill="#000000" opacity="1.000000" stroke="none" 
	d="
M279.742462,570.462708 
	C277.437500,577.892029 272.456268,582.264038 265.755615,584.561157 
	C255.887863,587.943909 246.060349,588.589478 236.824387,582.442627 
	C229.326004,577.452271 225.622833,566.419983 226.618301,557.338318 
	C228.377014,541.293579 240.095230,539.338257 250.966385,538.012451 
	C254.734238,537.553040 255.813004,539.651489 256.028046,543.014648 
	C256.586060,551.741394 257.393585,560.451965 257.988373,569.176697 
	C258.161987,571.723022 258.875732,572.239929 261.396881,571.298828 
	C265.767365,569.667542 268.133636,566.509644 268.888580,562.218323 
	C269.755310,557.291443 268.288727,552.611938 264.125916,549.932434 
	C260.641113,547.689392 261.406128,545.854736 262.923767,543.197632 
	C266.461823,537.003113 268.734375,536.386902 273.833496,541.461121 
	C281.976624,549.564392 282.233032,559.614075 279.742462,570.462708 
z"/>
<path fill="#000000" opacity="1.000000" stroke="none" 
	d="
M307.390594,673.184509 
	C302.966125,684.837769 285.567291,693.545959 273.477905,690.761597 
	C259.941467,687.643921 252.251678,673.155579 254.132278,660.676758 
	C255.216339,653.483398 260.380463,649.200073 266.547485,646.235535 
	C275.645020,641.862366 273.368652,641.156250 277.892639,649.778809 
	C281.430511,656.521973 284.752502,663.380920 288.053131,670.244812 
	C289.344116,672.929565 290.407562,673.073120 292.653290,670.984802 
	C296.020447,667.853699 296.821930,663.989624 295.745422,660.070007 
	C294.443268,655.328613 291.676086,650.995117 286.340668,650.185669 
	C282.875244,649.659851 282.704590,648.101562 283.278656,645.509583 
	C283.349213,645.191040 283.522156,644.890015 283.676086,644.595764 
	C284.721222,642.598083 282.645447,639.458862 285.356720,638.324829 
	C288.236237,637.120422 291.157928,638.603210 294.010345,639.503357 
	C303.589172,642.526245 312.753815,661.920349 307.390594,673.184509 
z"/>
<path fill="#000000" opacity="1.000000" stroke="none" 
	d="
M412.756104,827.338623 
	C397.770721,818.315918 401.070923,805.066101 406.871094,794.454895 
	C408.128204,792.155151 409.864471,793.078552 411.582001,793.797913 
	C419.494019,797.112000 427.473877,800.273315 435.302582,803.773132 
	C439.030396,805.439697 439.968903,804.269287 440.035461,800.621826 
	C440.180786,792.661560 431.504425,786.437134 423.841370,789.105286 
	C421.934082,789.769348 419.980225,792.214539 417.988953,790.215149 
	C415.807922,788.025452 414.164215,785.265503 412.481567,782.629456 
	C411.645813,781.320068 413.245117,781.041199 413.929077,780.537781 
	C419.416992,776.498535 425.328979,774.911438 432.111267,776.971558 
	C442.052979,779.991333 450.393677,784.546997 453.306946,795.616882 
	C455.348480,803.374451 453.215759,810.419189 449.844788,817.095642 
	C445.881775,824.944702 439.853333,830.492371 430.598389,831.706421 
	C424.170532,832.549622 418.600067,830.237610 412.756104,827.338623 
z"/>
<path fill="#000000" opacity="1.000000" stroke="none" 
	d="
M780.759766,715.347778 
	C770.182800,710.210083 770.145203,709.905762 776.169250,700.543762 
	C779.916260,694.720398 783.371155,688.709412 787.099609,682.873596 
	C788.369812,680.885437 788.309753,679.906189 785.927185,679.017395 
	C781.737427,677.454529 778.252686,678.173584 775.119995,681.350647 
	C771.588684,684.932007 769.030945,688.868591 770.657227,694.124756 
	C772.045288,698.611145 771.146362,699.740906 764.267761,702.365845 
	C760.105286,703.954407 759.796265,700.719971 759.042908,698.397888 
	C755.529114,687.567871 760.173523,678.959961 767.208069,671.414734 
	C773.921692,664.213684 782.633728,663.261658 791.489502,666.132019 
	C800.528992,669.061890 808.290161,674.203491 811.791077,683.656616 
	C817.758850,699.770874 805.004211,718.819397 789.571411,718.035217 
	C786.487976,717.878479 783.801331,716.764587 780.759766,715.347778 
z"/>
<path fill="#000000" opacity="1.000000" stroke="none" 
	d="
M644.871033,837.024719 
	C636.092102,841.282349 627.579041,842.769592 619.302124,837.050598 
	C613.034241,832.719910 611.330017,825.566956 609.232727,818.835938 
	C608.590881,816.776062 610.675171,816.354736 612.339172,815.801697 
	C620.786743,812.993896 629.120117,809.819824 637.641296,807.267151 
	C641.461670,806.122681 640.665955,804.653198 638.970032,802.499023 
	C633.634827,795.722046 621.938538,797.059875 618.159241,804.937439 
	C617.398621,806.523010 617.424194,809.074707 615.127136,808.805725 
	C611.901855,808.427917 608.722656,807.408813 605.623108,806.368103 
	C604.765320,806.080078 605.756226,804.925293 605.868835,804.163513 
	C607.301270,794.479614 613.962830,789.566223 622.494019,787.149109 
	C640.529053,782.039185 653.698547,790.948486 657.076538,809.515076 
	C659.259399,821.513184 655.627258,830.563965 644.871033,837.024719 
z"/>
<path fill="#000000" opacity="1.000000" stroke="none" 
	d="
M307.171051,398.997314 
	C294.199005,397.840546 277.232178,386.182404 278.878571,368.647644 
	C279.866394,358.127106 290.565765,345.525879 300.973297,345.336578 
	C308.206726,345.205048 314.737762,348.385834 319.977509,353.598267 
	C321.705200,355.316956 321.009308,357.081177 319.689484,358.923798 
	C315.086487,365.350159 310.548584,371.827026 306.168304,378.406158 
	C305.113403,379.990631 302.274597,381.651550 303.962341,383.635254 
	C305.581451,385.538300 308.606354,385.877075 311.251892,385.318573 
	C318.536530,383.780792 322.863922,377.062683 321.400055,369.782654 
	C320.156555,363.598511 325.630646,364.225647 328.795868,362.673096 
	C332.394165,360.908112 332.468994,364.123444 333.110352,366.177277 
	C335.208374,372.895508 334.236969,379.229004 330.417633,385.111420 
	C325.046906,393.383240 318.338959,399.499207 307.171051,398.997314 
z"/>
<path fill="#000000" opacity="1.000000" stroke="none" 
	d="
M805.041077,610.589478 
	C797.631104,604.732300 795.816284,597.009705 797.368042,588.666687 
	C799.108276,579.310486 802.824158,570.791138 812.989563,567.561523 
	C824.987976,563.749573 836.050049,566.515869 845.482971,574.243958 
	C853.258911,580.614624 854.140869,595.304871 848.440430,606.080505 
	C844.192444,614.110596 835.111023,617.049377 824.414734,615.436951 
	C817.750122,614.432312 817.308105,612.658997 818.768311,606.076599 
	C820.440002,598.540833 821.473328,590.864319 822.825134,583.256226 
	C823.349792,580.303223 821.722046,579.683167 819.375488,580.115417 
	C814.988525,580.923584 811.961792,583.509583 810.231812,587.615906 
	C808.443665,591.860229 808.528381,595.917114 811.275513,599.802917 
	C812.199463,601.110046 815.189087,602.178894 813.111755,604.087402 
	C810.598389,606.396484 810.419250,611.572693 805.041077,610.589478 
z"/>
<path fill="#000000" opacity="1.000000" stroke="none" 
	d="
M721.839233,729.630371 
	C740.540833,723.781799 760.384521,738.005310 759.917480,756.826721 
	C759.615601,768.990356 752.308716,776.444092 741.675110,781.092041 
	C733.313599,784.746826 723.050171,782.364258 715.765320,775.286316 
	C710.162659,769.842712 705.648621,763.657288 705.098022,755.691956 
	C704.238098,743.253052 710.779053,735.120850 721.839233,729.630371 
z"/>
<path fill="#000000" opacity="1.000000" stroke="none" 
	d="
M753.969360,379.232178 
	C754.457764,376.719635 753.651489,375.768707 751.426331,376.002319 
	C743.560974,376.828156 735.953247,368.219360 735.229126,359.591217 
	C734.662048,352.833374 740.045288,345.471924 748.159302,343.489899 
	C755.717407,341.643677 760.873413,346.644348 766.222107,350.741150 
	C768.316833,352.345612 770.279480,354.127930 772.418884,355.667023 
	C774.534302,357.188904 776.447021,357.255981 778.524475,355.090363 
	C780.569153,352.958923 779.939758,351.053894 778.585327,349.344879 
	C775.352844,345.266357 771.522644,341.711426 766.096802,341.110504 
	C762.421204,340.703430 761.607178,339.557739 762.828247,335.991638 
	C765.149475,329.212799 766.107727,328.389038 773.019348,330.974579 
	C783.236450,334.796600 790.185547,341.952820 792.701660,352.703033 
	C794.108215,358.712799 790.691040,363.266113 786.444031,366.937531 
	C780.834717,371.786682 774.990234,376.372437 769.110962,380.894714 
	C767.602417,382.055023 766.245605,383.177887 767.569153,384.852631 
	C772.022095,390.487000 765.455383,391.445465 763.444153,393.625824 
	C761.123962,396.141174 759.081604,392.682129 757.664795,391.019989 
	C754.932129,387.813995 751.928467,384.457642 753.969360,379.232178 
z"/>
<path fill="#000000" opacity="1.000000" stroke="none" 
	d="
M235.979965,464.073639 
	C239.223221,456.636414 249.308517,451.202515 260.056152,452.809631 
	C262.827789,453.224060 265.607849,453.385712 268.342621,454.172272 
	C287.635498,459.721069 290.971985,479.078400 282.577484,493.666107 
	C276.853088,503.613800 266.234497,506.859528 252.543350,503.749542 
	C233.210052,499.357910 226.677765,481.338318 235.979965,464.073639 
z"/>
<path fill="#000000" opacity="1.000000" stroke="none" 
	d="
M784.829407,380.639191 
	C793.534546,376.968140 801.799072,375.747101 810.242249,380.598480 
	C819.427063,385.876038 825.617737,399.527100 822.945251,409.508423 
	C821.403931,415.265015 819.413879,416.086761 814.093811,413.606812 
	C810.144165,411.765686 806.982666,410.659454 810.238098,404.893646 
	C813.603455,398.933319 805.781006,389.825226 798.769531,391.144073 
	C792.873718,392.253082 787.683655,395.066223 783.567810,399.736969 
	C780.333496,403.407257 780.280701,407.406647 782.324219,411.259674 
	C784.408264,415.189178 787.953430,418.231018 792.659058,417.458527 
	C795.931519,416.921356 795.891907,418.180969 796.012146,420.445099 
	C796.537720,430.338074 793.814392,432.406738 784.272278,428.921051 
	C773.775452,425.086609 769.613098,416.202606 768.244507,406.237396 
	C767.040649,397.471191 770.997559,390.149597 778.294983,384.912811 
	C780.303711,383.471252 782.435547,382.201263 784.829407,380.639191 
z"/>
<path fill="#000000" opacity="1.000000" stroke="none" 
	d="
M262.995422,620.001587 
	C265.242920,618.578308 267.129089,617.245422 269.064362,615.988037 
	C270.051147,615.346924 271.419037,614.701233 270.953461,613.450317 
	C270.589233,612.471680 269.256927,611.916565 267.986511,612.033325 
	C261.658813,612.614929 255.445206,610.747009 249.161713,611.069641 
	C244.790939,611.294128 240.623489,610.106689 236.329666,609.942993 
	C233.348404,609.829285 233.362640,607.423462 232.907730,605.325867 
	C232.319946,602.615601 230.146606,599.526001 231.469635,597.310303 
	C233.113876,594.556641 236.586212,596.998413 239.111191,597.166626 
	C254.083191,598.164185 269.019836,599.687744 283.972534,600.986328 
	C285.587799,601.126587 286.445984,601.441589 287.097595,603.310913 
	C291.655579,616.386108 291.665100,616.256409 280.455994,624.084900 
	C269.786743,631.536255 259.252625,639.183228 248.734634,646.847839 
	C245.721207,649.043762 244.655197,648.949768 243.729965,644.855652 
	C241.425995,634.660645 241.183289,634.753052 249.637207,629.115601 
	C254.024277,626.190125 258.318359,623.125183 262.995422,620.001587 
z"/>
<path fill="#000000" opacity="1.000000" stroke="none" 
	d="
M844.036133,626.845093 
	C843.778992,631.103943 841.577881,634.349548 840.454712,637.959595 
	C839.828979,639.970947 838.266968,640.067932 836.437988,639.777893 
	C825.394897,638.026733 814.315308,639.494324 803.228638,638.964172 
	C802.971375,641.317810 804.518616,642.078918 805.542847,642.965393 
	C812.414185,648.912598 819.142456,655.066833 826.405334,660.501526 
	C829.776917,663.024414 830.464172,664.922791 828.788635,668.694153 
	C824.733459,677.821777 825.008606,677.770264 817.619568,671.171692 
	C807.385071,662.031982 797.032532,653.020264 786.577515,644.133911 
	C783.606812,641.608948 783.000671,639.313232 784.603638,635.674255 
	C789.285828,625.044434 789.208862,624.229614 800.728943,625.190369 
	C815.160034,626.393860 829.605103,625.163147 844.036133,626.845093 
z"/>
<path fill="#000000" opacity="1.000000" stroke="none" 
	d="
M756.997192,324.751617 
	C753.652832,322.663269 751.451782,319.677673 748.327271,317.670074 
	C746.749878,316.656616 745.944702,316.386719 744.679504,317.807587 
	C740.162659,322.880188 735.326050,327.692810 731.107788,332.999176 
	C727.363770,337.708954 728.591858,341.877899 734.334717,343.780243 
	C737.604187,344.863220 737.146423,346.178192 736.217346,348.467041 
	C733.174377,355.964050 729.925964,356.974396 723.577271,351.938263 
	C721.431946,350.236481 719.070251,348.864563 717.469849,346.269073 
	C712.828430,338.741791 712.706970,333.116913 718.330933,326.256409 
	C723.048950,320.500977 728.005615,314.925812 733.111938,309.511688 
	C735.155823,307.344635 736.146912,305.838165 733.265625,303.739349 
	C729.597168,301.067108 731.421204,298.863159 733.891724,296.550690 
	C736.209656,294.381012 738.122375,291.412598 741.220337,295.676575 
	C743.774109,299.191437 745.611328,296.471893 746.679688,294.452332 
	C748.893555,290.267426 751.279846,290.721344 754.651794,293.052643 
	C761.706360,297.929993 761.903503,297.901703 756.563110,304.807190 
	C755.061707,306.748657 755.126648,307.830383 756.801392,309.330536 
	C758.412415,310.773560 759.657166,312.743225 761.455139,313.836121 
	C765.757935,316.451599 764.567017,318.651855 761.428284,321.101471 
	C759.992798,322.221802 758.703491,323.529358 756.997192,324.751617 
z"/>
<path fill="#000000" opacity="1.000000" stroke="none" 
	d="
M760.253540,729.751709 
	C756.661682,726.806274 753.252197,724.194763 750.012024,721.387817 
	C748.098755,719.730408 746.482544,719.663940 744.924988,721.629517 
	C741.086121,726.473694 739.260071,720.750000 736.579346,719.937561 
	C733.689209,719.061646 733.945435,716.906860 735.198669,714.419678 
	C739.528992,705.826294 749.990051,703.035767 757.415894,709.043152 
	C769.615173,718.911987 781.567383,729.086060 793.631775,739.121826 
	C796.423767,741.444397 799.218811,743.765381 802.076355,746.005615 
	C802.874756,746.631470 804.230347,747.451538 803.659912,748.189331 
	C801.146667,751.440247 799.305542,755.584229 795.563904,757.406189 
	C793.113953,758.599243 791.359985,755.580627 789.499146,754.029785 
	C779.857544,745.994141 770.175293,738.007324 760.253540,729.751709 
z"/>
<path fill="#000000" opacity="1.000000" stroke="none" 
	d="
M278.731812,509.144684 
	C282.514191,513.373108 281.447357,517.903809 279.821320,522.189941 
	C278.167694,526.548706 275.244019,529.891602 270.024048,529.981689 
	C256.755615,530.210754 243.549423,529.372803 230.327744,528.211182 
	C223.589172,527.619141 216.777222,527.456116 209.998505,527.081909 
	C207.019379,526.917480 206.022675,526.066284 205.936920,523.030212 
	C205.633041,512.270630 205.941864,512.075928 217.135406,513.798950 
	C222.845840,514.677979 228.719421,514.482910 234.473495,514.711121 
	C244.410278,515.105408 254.312286,516.613220 264.296753,516.034607 
	C266.844849,515.886902 269.039093,515.756653 269.027435,512.432434 
	C269.022919,511.146301 269.446686,510.217804 270.967377,510.056122 
	C273.420380,509.795227 275.859985,509.407806 278.731812,509.144684 
z"/>
<path fill="#000000" opacity="1.000000" stroke="none" 
	d="
M321.325012,322.165497 
	C320.580872,316.262939 322.241211,311.445587 326.758453,307.821136 
	C329.568115,305.566742 332.129364,305.287354 334.023865,309.018341 
	C334.393738,309.746735 334.940002,310.397430 335.467651,311.031769 
	C337.869629,313.919403 338.333099,316.023865 334.772980,318.973572 
	C328.071503,324.526031 328.265167,328.989197 335.288239,336.641418 
	C340.562805,342.388550 346.323395,347.711243 352.112305,352.952637 
	C354.066864,354.722351 354.483887,355.958130 352.665924,357.816528 
	C352.432983,358.054657 352.200409,358.293274 351.963135,358.527069 
	C343.006226,367.352081 345.491119,366.819977 337.387939,358.851685 
	C328.122742,349.740753 319.078400,340.403992 309.747009,331.362549 
	C307.336639,329.027039 307.332123,327.532837 309.865387,325.587158 
	C311.044464,324.681549 312.151428,323.602203 313.040131,322.413940 
	C315.325562,319.358185 317.528870,318.981354 320.104614,322.502075 
	C320.402130,321.222656 321.192200,322.634979 321.325012,322.165497 
z"/>
<path fill="#000000" opacity="1.000000" stroke="none" 
	d="
M592.226501,796.108887 
	C595.299500,795.739441 596.679993,796.260193 597.182495,799.536438 
	C599.500244,814.647949 602.239136,829.694885 604.806824,844.768372 
	C605.076660,846.352600 605.027588,847.748657 602.836975,847.981079 
	C601.044556,848.171204 599.295166,848.751099 597.503601,848.967529 
	C591.557861,849.685791 591.553894,849.652710 590.127258,842.541748 
	C587.821167,849.324402 583.617432,852.046692 577.744080,852.686401 
	C574.096436,853.083618 571.814270,852.532715 571.995422,848.276855 
	C572.066101,846.616211 572.033081,844.949402 571.997620,843.286438 
	C571.939087,840.541748 571.778320,838.778015 575.987000,839.629761 
	C581.531311,840.751953 586.738525,835.247253 587.012695,829.429993 
	C587.414368,820.908936 584.763916,812.787048 583.844727,804.436340 
	C583.107178,797.736328 582.819763,797.784302 589.445435,796.917297 
	C590.249329,796.812134 591.015808,796.421265 592.226501,796.108887 
z"/>
<path fill="#000000" opacity="1.000000" stroke="none" 
	d="
M376.811829,335.676788 
	C373.101837,339.126251 369.558197,339.744019 365.324677,337.173859 
	C361.739380,334.997192 361.713348,331.785370 362.132446,328.492126 
	C362.743134,323.693390 366.705444,322.131500 370.628204,321.343903 
	C373.491943,320.768921 376.384918,322.326385 377.765991,324.840546 
	C379.653107,328.275940 380.186584,332.068420 376.811829,335.676788 
z"/>
<path fill="#000000" opacity="1.000000" stroke="none" 
	d="
M546.074951,810.539795 
	C546.071838,804.133423 549.425415,800.376770 554.666016,800.473755 
	C560.623901,800.584106 563.346680,803.912415 563.032410,810.241943 
	C562.850098,813.912292 560.394958,815.635742 557.602539,816.568726 
	C554.189087,817.709229 550.633972,817.360657 548.010254,814.381714 
	C547.164856,813.421936 546.733459,812.097595 546.074951,810.539795 
z"/>
<path fill="#47704C" opacity="1.000000" stroke="none" 
	d="
M398.101135,269.875763 
	C397.331482,269.795410 397.024719,269.359802 397.340576,268.744171 
	C397.382263,268.662933 397.974182,268.863983 398.483093,269.111755 
	C398.531860,269.419617 398.408844,269.550018 398.101135,269.875763 
z"/>
<path fill="#47704C" opacity="1.000000" stroke="none" 
	d="
M323.633545,729.681702 
	C317.155212,734.815430 310.919769,739.679504 304.825195,744.714111 
	C301.751160,747.253601 299.182129,749.118347 296.522339,744.157715 
	C295.220398,741.729492 292.881866,739.881165 291.334717,737.555969 
	C285.882294,729.361511 287.445038,719.788391 295.476105,713.332764 
	C299.553253,710.055481 303.537262,706.588074 308.744843,704.907532 
	C314.556152,703.032166 319.437988,704.276855 323.794189,708.300110 
	C327.808044,712.007385 331.395599,716.090698 334.546234,720.607239 
	C330.994171,723.578064 327.464386,726.530334 323.633545,729.681702 
z"/>
<path fill="#47704C" opacity="1.000000" stroke="none" 
	d="
M815.002808,523.799316 
	C815.001038,523.006836 814.997192,522.674011 815.000977,522.341309 
	C815.092102,514.221924 814.300720,515.857300 822.101501,514.818542 
	C833.325134,513.323975 844.647217,515.232849 855.787170,513.080688 
	C858.554260,512.546082 860.274414,513.436035 860.026917,516.734802 
	C859.840759,519.216370 860.003540,521.723511 859.998535,524.219299 
	C859.974609,536.086548 853.537903,543.103149 841.794067,543.997803 
	C838.905640,544.217896 836.253479,545.047424 833.066650,544.318115 
	C820.049866,541.339417 816.163757,537.365417 815.002808,523.799316 
z"/>
<path fill="#47704C" opacity="1.000000" stroke="none" 
	d="
M558.352783,220.066559 
	C564.146118,222.337357 565.022339,226.956223 563.749878,231.637955 
	C562.481445,236.305161 558.232056,237.086945 553.747620,237.045731 
	C542.992188,236.946884 542.991272,237.044006 543.000061,226.322098 
	C543.006897,218.084732 543.191467,217.995880 551.499023,219.653824 
	C553.585693,220.070236 555.785095,219.921402 558.352783,220.066559 
z"/>
<path fill="#47704C" opacity="1.000000" stroke="none" 
	d="
M679.483032,775.072266 
	C688.558289,775.081848 698.272400,786.341064 696.901428,794.755859 
	C696.133301,799.470581 692.242371,803.420715 686.884216,804.506775 
	C681.285156,805.641663 678.510132,801.279663 675.644958,797.863159 
	C673.678345,795.518066 672.373596,792.454956 671.354736,789.511353 
	C669.130859,783.086487 671.595642,778.751404 679.483032,775.072266 
z"/>
<path fill="#47704C" opacity="1.000000" stroke="none" 
	d="
M276.289734,432.953613 
	C271.257507,431.121399 266.545807,429.532288 264.207489,424.504883 
	C262.464691,420.757874 262.293793,417.164948 264.838074,413.756409 
	C267.647522,409.992584 271.418213,407.903992 276.076996,409.247894 
	C279.659271,410.281281 283.272675,411.321198 286.474426,413.653809 
	C292.778107,418.246368 294.443085,421.841675 291.906342,427.215515 
	C288.841217,433.708740 284.304749,435.440399 276.289734,432.953613 
z"/>
<path fill="#47704C" opacity="1.000000" stroke="none" 
	d="
M389.798523,779.441467 
	C387.796997,783.160278 385.641937,786.281555 382.693481,788.774780 
	C378.583221,792.250366 372.822998,792.384033 368.697021,789.138916 
	C364.897369,786.150452 363.866119,781.003174 365.950287,776.101624 
	C367.455200,772.562378 369.609589,769.420105 372.067413,766.556885 
	C375.827118,762.177002 381.589813,761.341919 386.254333,764.119934 
	C390.961456,766.923401 392.314301,772.381897 389.798523,779.441467 
z"/>
<path fill="#47704C" opacity="1.000000" stroke="none" 
	d="
M374.124207,801.101196 
	C374.204498,800.331543 374.640106,800.024902 375.255768,800.340576 
	C375.336975,800.382202 375.135986,800.974121 374.888245,801.483032 
	C374.580444,801.531921 374.450012,801.408936 374.124207,801.101196 
z"/>
<path fill="#47704C" opacity="1.000000" stroke="none" 
	d="
M238.534592,557.029663 
	C240.515381,553.744995 243.343185,552.796997 246.295654,552.378235 
	C248.615509,558.348694 247.322510,564.582825 248.672073,570.507202 
	C249.153915,572.622314 247.496887,571.991882 246.507324,571.980469 
	C242.418823,571.933228 238.387955,568.107239 238.069504,563.778687 
	C237.913498,561.658447 238.212845,559.504700 238.534592,557.029663 
z"/>
<path fill="#47704C" opacity="1.000000" stroke="none" 
	d="
M266.009979,667.905762 
	C265.825623,665.785339 266.302460,664.230896 267.128174,662.745422 
	C268.071686,661.047974 269.503601,659.667908 271.354584,659.620789 
	C273.092346,659.576599 273.286560,661.669739 273.920319,662.911682 
	C275.720703,666.440063 277.350983,670.056091 279.017120,673.652039 
	C280.634583,677.142761 278.948273,678.106140 275.717529,677.996155 
	C271.188751,677.842041 267.217316,673.923950 266.009979,667.905762 
z"/>
<path fill="#47704C" opacity="1.000000" stroke="none" 
	d="
M431.420837,812.226135 
	C434.266754,813.337097 435.248566,814.375122 432.802612,816.822266 
	C429.901855,819.724243 426.553406,820.755005 422.856293,819.730469 
	C419.127625,818.697144 415.887115,816.713806 415.138855,812.279419 
	C414.805817,810.305908 415.280640,808.415344 416.507233,807.224426 
	C417.554901,806.207275 419.219757,807.217957 420.589386,807.809570 
	C424.057495,809.307434 427.580750,810.677612 431.420837,812.226135 
z"/>
<path fill="#47704C" opacity="1.000000" stroke="none" 
	d="
M794.291565,689.416687 
	C797.497131,685.517578 798.425171,685.815002 800.813171,690.676453 
	C803.005310,695.139282 800.818848,698.601990 798.400208,701.936646 
	C796.357483,704.752930 793.263000,705.590271 790.008606,704.799683 
	C787.891663,704.285400 785.322510,703.634033 787.794983,700.252258 
	C790.199402,696.963684 792.025635,693.252502 794.291565,689.416687 
z"/>
<path fill="#47704C" opacity="1.000000" stroke="none" 
	d="
M630.667603,819.666748 
	C633.986145,818.508972 637.027466,817.709167 639.899597,816.505798 
	C643.319092,815.073120 644.296753,816.182922 644.007996,819.600769 
	C643.446289,826.248474 635.062744,831.055786 629.196350,828.077393 
	C626.929138,826.926392 625.210266,825.046997 625.313232,822.763000 
	C625.434387,820.075745 628.497437,820.638367 630.667603,819.666748 
z"/>
<path fill="#47704C" opacity="1.000000" stroke="none" 
	d="
M299.258667,371.253967 
	C298.898254,371.639862 298.785767,371.762512 298.676971,371.888336 
	C297.285187,373.498322 296.810303,377.158691 294.368622,376.241791 
	C292.180573,375.420135 291.205322,372.245514 291.009857,369.473755 
	C290.496368,362.191528 297.016357,356.711182 303.268555,358.884247 
	C306.125641,359.877289 306.114807,361.282379 304.857574,363.263306 
	C303.180023,365.906586 301.300903,368.421936 299.258667,371.253967 
z"/>
<path fill="#47704C" opacity="1.000000" stroke="none" 
	d="
M839.955750,588.355896 
	C842.276001,595.762695 839.431458,601.067871 832.665894,602.666016 
	C829.625122,603.384399 828.681152,602.375366 829.300110,599.364502 
	C830.420593,593.914124 831.404297,588.435608 832.464905,582.864685 
	C835.871399,583.252075 838.232178,585.088440 839.955750,588.355896 
z"/>
<path fill="#47704C" opacity="1.000000" stroke="none" 
	d="
M740.087524,768.314941 
	C732.255493,770.935364 724.539795,766.430725 720.036133,757.143372 
	C718.213806,753.385437 717.455200,749.846375 720.268555,746.136658 
	C723.224670,742.238770 727.103027,739.869202 731.766296,741.161255 
	C738.899231,743.137512 743.155273,748.733459 745.855408,755.303711 
	C748.256470,761.146423 744.614868,764.844116 740.087524,768.314941 
z"/>
<path fill="#47704C" opacity="1.000000" stroke="none" 
	d="
M749.087524,362.681458 
	C749.949219,355.767303 755.048462,353.618805 760.178040,357.834167 
	C762.719116,359.922363 765.171814,362.048645 768.161987,363.462708 
	C759.836975,372.663513 752.873779,371.748474 749.087524,362.681458 
z"/>
<path fill="#47704C" opacity="1.000000" stroke="none" 
	d="
M261.348572,467.242554 
	C267.130035,468.991272 272.923065,470.166412 274.089813,477.041656 
	C275.411743,484.831207 270.519562,491.274597 261.755371,490.794312 
	C257.594910,490.566315 253.319397,489.518677 249.512360,487.224915 
	C244.858551,484.420868 242.997543,480.610901 244.263763,475.558258 
	C245.548615,470.431274 249.414948,467.149780 254.446182,467.021362 
	C256.607178,466.966156 258.772552,467.081238 261.348572,467.242554 
z"/>
<path fill="#47704C" opacity="1.000000" stroke="none" 
	d="
M320.898865,322.124237 
	C321.668518,322.204590 321.975250,322.640167 321.659393,323.255829 
	C321.617737,323.337036 321.025818,323.135986 320.516907,322.888245 
	C320.468140,322.580383 320.591156,322.449982 320.898865,322.124237 
z"/>
</svg>